# xmcd
#
# Track frame offsets:
# 150
# 24875
# 41650
# 62375
# 81987
# 114100
# 140437
# 154662
# 206537
# 233625
#
# Disc length: 3693 seconds
#
# Revision: 2
# Processed by: cddbd v1.5.2PL0 Copyright (c) Steve Scherf et al.
# Submitted via: Audio-CD-Archiv 4.00.530
#
DISCID=710e6b0a
DTITLE=Zwingenberger, Axel and Torsten Zwingenberger - Boogie Woogie Bros.
DYEAR=1989
DGENRE=blues
TTITLE0=Axel Zwingenberger and Torsten Zwingenberger - Ballade Pour Adrenalin
TTITLE1=Axel Zwingenberger and Torsten Zwingenberger - Solid Sending Boogie
TTITLE2=Axel Zwingenberger and Torsten Zwingenberger - Jazzland Blues
TTITLE3=Axel Zwingenberger and Torsten Zwingenberger - Little Eva's Dance
TTITLE4=Axel Zwingenberger and Torsten Zwingenberger - Farewell To Peter
TTITLE5=Axel Zwingenberger and Torsten Zwingenberger - Two Eels Waltzing On An Icecake
TTITLE6=Axel Zwingenberger and Torsten Zwingenberger - Walking Down The Keys
TTITLE7=Axel Zwingenberger and Torsten Zwingenberger - Jive For Johnson
TTITLE8=Axel Zwingenberger and Torsten Zwingenberger - Eva's Pleasure
TTITLE9=Axel Zwingenberger and Torsten Zwingenberger - Brothers Boogie
EXTD=
EXTT0=
EXTT1=
EXTT2=
EXTT3=
EXTT4=
EXTT5=
EXTT6=
EXTT7=
EXTT8=
EXTT9=
PLAYORDER=
